<?xml version="1.0" encoding="UTF-8"?>
<svg width="115px" height="114px" viewBox="0 0 115 114" version="1.1" xmlns="http://www.w3.org/2000/svg" xmlns:xlink="http://www.w3.org/1999/xlink">
    <!-- Generator: Sketch 48.2 (47327) - http://www.bohemiancoding.com/sketch -->
    <title>Group</title>
    <desc>Created with Sketch.</desc>
    <defs></defs>
    <g id="Page-1" stroke="none" stroke-width="1" fill="none" fill-rule="evenodd">
        <g id="sprite" transform="translate(0.000000, 1.000000)" stroke="#1C47E7">
            <g id="Group">
                <path d="M57.9,45.2 C64,45.2 68.9,50.1 68.9,56.2 C68.9,62.3 64,67.2 57.9,67.2 C51.8,67.2 46.9,62.3 46.9,56.2 C46.9,50.1 51.8,45.2 57.9,45.2 Z" id="Shape"></path>
                <path d="M35.9,95.5 C30.5,93.3 26,89.6 23,84.9" id="Shape"></path>
                <path d="M35.2,103.8 C25,99.7 16.5,92.5 10.8,83.6" id="Shape"></path>
                <path d="M95.4,75.8 C93.1,81.1 89.3,85.5 84.4,88.4" id="Shape"></path>
                <path d="M104,76.5 C99.7,86.5 92.3,94.9 83.1,100.5" id="Shape"></path>
                <path d="M78.8,16.2 C84.2,18.4 88.7,22.2 91.7,26.9" id="Shape"></path>
                <path d="M79.6,7.9 C89.7,12 98.3,19.2 104,28.3" id="Shape"></path>
                <path d="M19.3,36.1 C21.6,30.8 25.4,26.3 30.3,23.4" id="Shape"></path>
                <path d="M10.7,35.4 C15,25.3 22.4,16.8 31.6,11.2" id="Shape"></path>
                <path d="M63.5,65.4 C63.5,65.4 71.6,86.9 72,96.5 C72.5,106.1 60.9,113.4 54.9,112 C48.8,110.6 42.3,104.5 46.2,92.4 C50.1,80.3 51.9,68.5 51.9,68.5" id="Shape"></path>
                <path d="M66.4,49.2 C66.4,49.2 88.6,41.2 98.2,40.8 C107.9,40.4 115.1,51.7 113.7,57.7 C112.3,63.6 106.1,70 93.9,66.1 C81.7,62.2 70.8,59.8 70.8,59.8" id="Shape"></path>
                <path d="M51.2,47.2 C51.2,47.2 43.1,25.6 42.7,15.9 C42.1,6.3 53.7,-1 59.8,0.4 C65.9,1.8 72.3,7.9 68.5,20.1 C64.6,32.3 62.9,44.1 62.9,44.1" id="Shape"></path>
                <path d="M48.6,62.3 C48.6,62.3 26.3,70.3 16.7,70.8 C7,71.3 -0.3,59.9 1.1,53.9 C2.5,47.9 8.7,41.6 20.9,45.4 C33.1,49.2 44.9,51 44.9,51" id="Shape"></path>
            </g>
        </g>
    </g>
</svg>