<?xml version="1.0" encoding="UTF-8"?>
<svg width="105px" height="111px" viewBox="0 0 105 111" version="1.1" xmlns="http://www.w3.org/2000/svg" xmlns:xlink="http://www.w3.org/1999/xlink">
    <!-- Generator: Sketch 48.2 (47327) - http://www.bohemiancoding.com/sketch -->
    <title>Group 3</title>
    <desc>Created with Sketch.</desc>
    <defs></defs>
    <g id="Page-1" stroke="none" stroke-width="1" fill="none" fill-rule="evenodd">
        <g id="sprite" transform="translate(-326.000000, -4.000000)" stroke="#1C47E7">
            <g id="Group-3" transform="translate(327.000000, 4.000000)">
                <path d="M68,65.9 C68,65.9 85.1,73.7 90,75.8 C94.9,77.9 104.2,82.6 103,90.3 C101.9,98 100.1,109.7 100.1,109.7 L51.7,110.4 L3.3,109.7 C3.3,109.7 1.5,98 0.4,90.3 C-0.7,82.6 8.5,77.9 13.4,75.8 C18.3,73.7 35.4,65.9 35.4,65.9" id="Shape"></path>
                <path d="M48,38.5 C48,39.3 47.4,39.9 46.6,39.9 L38.8,39.9 C38,39.9 37.4,39.3 37.4,38.5 L37.4,33.8 C37.4,33 38,32.4 38.8,32.4 L46.6,32.4 C47.4,32.4 48,33 48,33.8 L48,38.5 Z" id="Shape"></path>
                <path d="M66,38.5 C66,39.3 65.4,39.9 64.6,39.9 L56.8,39.9 C56,39.9 55.4,39.3 55.4,38.5 L55.4,33.8 C55.4,33 56,32.4 56.8,32.4 L64.6,32.4 C65.4,32.4 66,33 66,33.8 L66,38.5 Z" id="Shape"></path>
                <path d="M48,37.1 C48,35.1 49.6,33.4 51.7,33.4 C53.7,33.4 55.4,35 55.4,37.1" id="Shape"></path>
                <path d="M76.3,24.3 C76.3,36.5 65.2,59.8 51.6,59.8 C37.9,59.8 26.9,41.1 26.9,24.3 C26.9,7.5 38,0.7 51.6,0.7 C65.2,0.8 76.3,7.6 76.3,24.3 Z" id="Shape"></path>
                <path d="M35.5,65.9 L41.9,56.1" id="Shape"></path>
                <path d="M76.7,25.1 C76.7,25.1 74.5,24 71.7,20.2 C68.9,16.4 67.6,14.1 67.6,14.1 C67.6,14.1 60.9,17.6 52.2,17.6 C42.9,17.6 36.5,14.6 36.5,14.6 C36.5,14.6 35.3,16.8 32,20.2 C30.1,22.1 27,25.1 27,25.1" id="Shape"></path>
                <path d="M51.3,110.5 L51.3,71.5" id="Shape"></path>
                <path d="M35.7,65.9 C35.7,65.9 39.3,72.1 51.1,72.1 C62.9,72.1 67.9,66.6 67.9,66.6 L61.8,56.5" id="Shape"></path>
                <path d="M8.8,78 C8.8,78 15.1,82.5 17.3,86.8 C22.3,96.2 22.1,109.4 22.1,109.4" id="Shape"></path>
                <path d="M94.6,78 C94.6,78 88.3,82.5 86.1,86.8 C81.1,96.2 81.3,109.4 81.3,109.4" id="Shape"></path>
            </g>
        </g>
    </g>
</svg>