<?xml version="1.0" encoding="UTF-8" standalone="no"?>
<svg width="403px" height="63px" viewBox="0 0 403 63" version="1.1" xmlns="http://www.w3.org/2000/svg" xmlns:xlink="http://www.w3.org/1999/xlink">
    <!-- Generator: Sketch 48.2 (47327) - http://www.bohemiancoding.com/sketch -->
    <title>Artboard</title>
    <desc>Created with Sketch.</desc>
    <defs></defs>
    <g id="Page-1" stroke="none" stroke-width="1" fill="none" fill-rule="evenodd">
        <g id="Artboard">
            <path d="M56.229,61.915 L30.221,61.915 L30.221,27.893 L22.487,27.893 L22.487,20.102 L15.599,20.102 L15.599,12.893 L22.816,12.893 L22.816,20.102 L30.221,20.102 L30.221,0 L56.229,0 C74.685,0 85.196,11.021 85.196,30.357 C85.196,50.679 74.855,61.915 56.229,61.915 Z M53.398,12.649 L53.581,12.818 L53.581,20.102 L60.732,20.102 L60.732,27.893 L52.934,27.893 L52.934,20.609 L45.97,20.609 L45.97,49.264 L53.398,49.264 C63.615,49.264 69.145,42.921 69.145,30.658 C69.145,19.121 63.313,12.649 53.398,12.649 Z M7.8,40.027 L15.599,40.027 L15.599,32.237 L7.8,32.237 L7.8,40.027 Z M0,25.58 L7.798,25.58 L7.798,17.789 L0,17.789 L0,25.58 Z M16.244,51.283 L24.046,51.283 L24.046,43.493 L16.244,43.493 L16.244,51.283 Z" id="Page-1" fill="#FFFFFF"></path>
            <path d="M130.195868,61.9575 L115.075868,61.9575 L115.075868,58.0935 C112.807868,60.9495 107.851868,62.9655 102.811868,62.9655 C96.7638683,62.9655 88.8678683,58.8495 88.8678683,49.6095 C88.8678683,39.5295 96.7638683,36.6735 102.811868,36.6735 C108.103868,36.6735 112.891868,38.3535 115.075868,41.1255 L115.075868,36.9255 C115.075868,34.0695 112.471868,31.8855 107.515868,31.8855 C103.735868,31.8855 99.4518683,33.3975 96.2598683,35.8335 L91.1358683,26.5095 C96.5958683,22.1415 104.155868,20.3775 110.287868,20.3775 C120.367868,20.3775 130.195868,23.9055 130.195868,37.4295 L130.195868,61.9575 Z M109.111868,53.1375 C111.463868,53.1375 114.067868,52.3815 115.075868,50.9535 L115.075868,48.6855 C114.067868,47.2575 111.463868,46.5015 109.111868,46.5015 C106.591868,46.5015 103.819868,47.3415 103.819868,49.8615 C103.819868,52.3815 106.591868,53.1375 109.111868,53.1375 Z M154.147868,62.9655 C145.159868,62.9655 140.203868,58.6815 140.203868,50.1975 L140.203868,34.4895 L133.483868,34.4895 L133.483868,21.3855 L140.203868,21.3855 L140.203868,10.2975 L155.323868,10.2975 L155.323868,21.3855 L163.555868,21.3855 L163.555868,34.4895 L155.323868,34.4895 L155.323868,45.8295 C155.323868,47.9295 156.667868,49.6095 158.683868,49.6095 C160.027868,49.6095 161.371868,49.1895 161.707868,48.8535 L164.395868,60.2775 C162.799868,61.7055 159.271868,62.9655 154.147868,62.9655 Z M206.239868,61.9575 L191.119868,61.9575 L191.119868,58.0935 C188.851868,60.9495 183.895868,62.9655 178.855868,62.9655 C172.807868,62.9655 164.911868,58.8495 164.911868,49.6095 C164.911868,39.5295 172.807868,36.6735 178.855868,36.6735 C184.147868,36.6735 188.935868,38.3535 191.119868,41.1255 L191.119868,36.9255 C191.119868,34.0695 188.515868,31.8855 183.559868,31.8855 C179.779868,31.8855 175.495868,33.3975 172.303868,35.8335 L167.179868,26.5095 C172.639868,22.1415 180.199868,20.3775 186.331868,20.3775 C196.411868,20.3775 206.239868,23.9055 206.239868,37.4295 L206.239868,61.9575 Z M185.155868,53.1375 C187.507868,53.1375 190.111868,52.3815 191.119868,50.9535 L191.119868,48.6855 C190.111868,47.2575 187.507868,46.5015 185.155868,46.5015 C182.635868,46.5015 179.863868,47.3415 179.863868,49.8615 C179.863868,52.3815 182.635868,53.1375 185.155868,53.1375 Z" id="ataforce" fill="#FFFFFF"></path>
            <path d="M231.367868,61.9575 L216.247868,61.9575 L216.247868,34.4895 L209.527868,34.4895 L209.527868,21.3855 L216.247868,21.3855 L216.247868,19.5375 C216.247868,11.0535 222.715868,5.0895 231.703868,5.0895 C236.407868,5.0895 241.531868,6.4335 244.387868,9.4575 L238.927868,17.8575 C238.003868,16.7655 236.911868,16.2615 235.231868,16.2615 C233.299868,16.2615 231.367868,17.5215 231.367868,19.5375 L231.367868,21.3855 L239.599868,21.3855 L239.599868,34.4895 L231.367868,34.4895 L231.367868,61.9575 Z" id="Path" fill="#1C47E7"></path>
            <path d="M262.795868,62.9655 C248.431868,62.9655 240.031868,52.9695 240.031868,41.6295 C240.031868,30.2895 248.431868,20.3775 262.795868,20.3775 C277.243868,20.3775 285.643868,30.2895 285.643868,41.6295 C285.643868,52.9695 277.243868,62.9655 262.795868,62.9655 Z M262.795868,49.6095 C267.499868,49.6095 270.103868,46.1655 270.103868,41.6295 C270.103868,37.1775 267.499868,33.7335 262.795868,33.7335 C258.175868,33.7335 255.571868,37.1775 255.571868,41.6295 C255.571868,46.1655 258.175868,49.6095 262.795868,49.6095 Z" id="Combined-Shape" fill="#1C47E7"></path>
            <path d="M304.891868,61.9575 L289.771868,61.9575 L289.771868,21.3855 L304.891868,21.3855 L304.891868,25.8375 C307.411868,22.8975 312.703868,20.2095 317.323868,20.2095 L317.323868,34.6575 C316.567868,34.4055 315.307868,34.2375 313.879868,34.2375 C310.687868,34.2375 306.571868,35.0775 304.891868,37.0935 L304.891868,61.9575 Z" id="Path" fill="#1C47E7"></path>
            <path d="M341.023868,62.9655 C328.171868,62.9655 318.259868,54.5655 318.259868,41.6295 C318.259868,28.7775 328.171868,20.3775 341.023868,20.3775 C350.263868,20.3775 355.975868,24.5775 358.243868,28.0215 L348.499868,37.1775 C347.239868,35.2455 344.887868,33.7335 341.695868,33.7335 C337.411868,33.7335 333.715868,36.4215 333.715868,41.6295 C333.715868,46.8375 337.411868,49.6095 341.695868,49.6095 C344.887868,49.6095 347.239868,47.9295 348.499868,46.0815 L358.243868,55.3215 C355.975868,58.6815 350.263868,62.9655 341.023868,62.9655 Z" id="Path" fill="#1C47E7"></path>
            <path d="M381.523868,62.9655 C368.839868,62.9655 358.927868,54.9855 358.927868,41.6295 C358.927868,29.8695 367.915868,20.3775 381.019868,20.3775 C392.947868,20.3775 402.103868,28.9455 402.103868,43.2255 L402.103868,46.3335 L374.551868,46.3335 C375.391868,48.9375 378.331868,51.4575 383.287868,51.4575 C385.555868,51.4575 390.595868,50.3655 392.611868,48.6015 L398.827868,57.9255 C394.795868,61.3695 387.571868,62.9655 381.523868,62.9655 Z M387.739868,36.7575 C387.319868,34.9935 385.891868,31.8855 381.019868,31.8855 C376.399868,31.8855 374.887868,34.9095 374.383868,36.7575 L387.739868,36.7575 Z" id="Combined-Shape" fill="#1C47E7"></path>
        </g>
    </g>
</svg>