<?xml version="1.0" encoding="UTF-8"?>
<svg width="124px" height="107px" viewBox="0 0 124 107" version="1.1" xmlns="http://www.w3.org/2000/svg" xmlns:xlink="http://www.w3.org/1999/xlink">
    <!-- Generator: Sketch 48.2 (47327) - http://www.bohemiancoding.com/sketch -->
    <title>Group 2</title>
    <desc>Created with Sketch.</desc>
    <defs></defs>
    <g id="Page-1" stroke="none" stroke-width="1" fill="none" fill-rule="evenodd">
        <g id="sprite" transform="translate(-150.000000, -6.000000)">
            <g id="Group-2" transform="translate(150.000000, 7.000000)">
                <path d="M99.6,71.3 C105.7,71.3 110.6,76.2 110.6,82.2 C110.6,88.2 105.7,93.1 99.6,93.1 C93.5,93.1 88.6,88.2 88.6,82.2 C88.6,76.1 93.6,71.3 99.6,71.3 Z" id="Shape" stroke="#1C47E7"></path>
                <path d="M99.6,71.4 L99.6,18.1" id="Shape" stroke="#1C47E7"></path>
                <path d="M110.5,61.8 L110.5,9.4 C110.5,4.2 106.3,0 101.1,0 L97.3,0 C92.1,0 87.9,4.2 87.9,9.4 L87.9,62.3 C81,66.3 76.3,73.7 76.3,82.2 C76.3,94.9 86.7,105.2 99.6,105.2 C112.5,105.2 122.9,94.9 122.9,82.2 C122.9,73.3 117.9,65.7 110.5,61.8 Z" id="Shape" stroke="#1C47E7"></path>
                <path d="M69.9,45.8 C73.7,45.8 76.8,48.9 76.8,52.6 C76.8,56.4 73.7,59.4 69.9,59.4 C66.1,59.4 63,56.3 63,52.6 C63,48.8 66.1,45.8 69.9,45.8 Z" id="Shape" stroke="#1C47E7"></path>
                <g id="Group" transform="translate(0.000000, 58.000000)" fill="#1C47E7" fill-rule="nonzero">
                    <path d="M23.6,12 C23.6,21.2 18.8,26.3 1.9,45.3 L24.5,45.3 L24.3,46.2 L0.7,46.2 L0.7,45.3 C18.2,25.7 22.7,20.7 22.7,12.1 C22.7,6.1 18.8,1.7 12.3,1.7 C7.4,1.7 4.2,3.8 1.3,7.3 L0.6,6.8 C3.9,2.9 7.3,0.8 12.4,0.8 C19.4,0.8 23.6,5.7 23.6,12 Z" id="Shape"></path>
                    <path d="M59.8,23.9 C59.8,39.2 55.4,46.9 46.9,46.9 C38.3,46.9 33.9,39.1 33.9,23.9 C33.9,8.6 38.3,0.9 46.9,0.9 C55.5,0.8 59.8,8.5 59.8,23.9 Z M34.9,23.8 C34.9,38.5 38.9,45.9 46.9,45.9 C54.9,45.9 58.9,38.5 58.9,23.8 C58.9,9.1 54.9,1.6 46.9,1.6 C39,1.7 34.9,9 34.9,23.8 Z" id="Shape"></path>
                </g>
            </g>
        </g>
    </g>
</svg>